<mxfile host="app.diagrams.net" modified="2023-12-01T18:58:55.724Z" agent="Mozilla/5.0 (Windows NT 10.0; Win64; x64) AppleWebKit/537.36 (KHTML, like Gecko) Chrome/119.0.0.0 Safari/537.36" version="22.1.5" etag="STAa4KrLGq-0FOW7lG1J" type="github">
  <diagram name="Page-1" id="tNcL_uNT00_sdX1AuJ5a">
    <mxGraphModel>
      <root>
        <mxCell id="0" />
        <mxCell id="1" parent="0" />
      </root>
    </mxGraphModel>
  </diagram>
</mxfile>
